<svg width="24" height="24" viewBox="0 0 24 24" fill="none" xmlns="http://www.w3.org/2000/svg">
<g clipPath="url(#clip0_263_2291)">
<path d="M14.6855 5.83086C12.2446 3.39004 8.27202 3.39004 5.8312 5.83086C3.3909 8.27221 3.3909 12.2443 5.8312 14.6856C8.00481 16.8587 11.3901 17.0915 13.8293 15.3947C13.8807 15.6375 13.9981 15.8693 14.187 16.0582L17.7416 19.6128C18.2596 20.1297 19.0967 20.1297 19.6121 19.6128C20.1296 19.0953 20.1296 18.2583 19.6121 17.7424L16.0575 14.1867C15.8696 13.9994 15.6373 13.8814 15.3945 13.8301C17.0924 11.3903 16.8596 8.00554 14.6855 5.83086ZM13.5632 13.5634C11.7409 15.3857 8.77521 15.3857 6.95345 13.5634C5.13223 11.7411 5.13223 8.77593 6.95345 6.95365C8.77521 5.1319 11.7409 5.1319 13.5632 6.95365C15.3855 8.77593 15.3855 11.7411 13.5632 13.5634Z" fill="#979798"/>
</g>
<defs>
<clipPath id="clip0_263_2291">
<rect width="16" height="16" fill="white" transform="translate(4 4)"/>
</clipPath>
</defs>
</svg>
