<svg width="48" height="48" viewBox="0 0 48 48" fill="none" xmlns="http://www.w3.org/2000/svg">
<path d="M47.0004 23.4859V23.5237C46.9882 29.5649 42.0626 34.4784 36.0214 34.4784C33.9672 34.4784 31.9967 33.98 30.1639 32.9968C29.9586 32.886 29.752 32.7685 29.5494 32.6456C29.0011 32.3134 28.6108 31.7637 28.4784 31.1384C28.346 30.5144 28.4784 29.8566 28.8431 29.334L33.5553 22.5581C34.0874 21.7923 35.1395 21.6032 35.9053 22.1353C36.6711 22.6675 36.8601 23.7196 36.328 24.4854L32.2938 30.2861C33.4756 30.8277 34.7276 31.1019 36.0214 31.1019C40.2056 31.1019 43.6158 27.6998 43.6239 23.517V23.4859C43.6239 21.506 42.8676 19.63 41.4954 18.2024C40.1232 16.7762 38.2837 15.9591 36.3172 15.9024C31.058 15.7484 28.4689 19.7583 25.472 24.403L25.4558 24.4273C22.4116 29.1449 18.9689 34.4784 12.0728 34.4784C11.9418 34.4784 11.8095 34.477 11.6757 34.473C8.82061 34.3892 6.15184 33.2048 4.16243 31.1384C2.18112 29.0801 1.08984 26.3721 1.08984 23.5129V23.4765C1.10335 17.4353 6.02759 12.5205 12.0688 12.5205C14.123 12.5205 16.0949 13.0202 17.9263 14.0035C18.1329 14.1142 18.3395 14.2317 18.5408 14.3546C19.0891 14.6868 19.4794 15.2365 19.6131 15.8619C19.7455 16.4858 19.6131 17.1422 19.2485 17.6649L14.5349 24.4421C14.0028 25.2079 12.9507 25.397 12.1863 24.8649C11.4205 24.3314 11.2314 23.2793 11.7635 22.5149L15.7977 16.7141C14.616 16.1711 13.364 15.897 12.0688 15.897C7.886 15.897 4.47577 19.3005 4.46631 23.4832V23.5129C4.46631 25.4942 5.22264 27.3702 6.59619 28.7964C7.96838 30.224 9.80788 31.0411 11.7743 31.0978C11.8716 31.1005 11.9688 31.1019 12.0647 31.1019C17.1294 31.1019 19.6766 27.1541 22.6196 22.5972L22.6344 22.5716C25.7367 17.7648 29.255 12.3179 36.4158 12.5273C39.2709 12.6096 41.9384 13.7941 43.9278 15.8619C45.9091 17.9202 47.0004 20.6281 47.0004 23.4859Z" fill="#6666FF"/>
</svg>
